# xmcd
# 
# Track frame offsets:
#     150
#     15287
#     27237
#     38340
#     69655
#     81162
#     99737
#     112437
#     129665
#     145440
# 
# Disc length: 2251
# 
# Revision: 2
# Processed by: cddbd v1.5.2PL0 Copyright (c) Steve Scherf et al.
# Submitted via: fre:ac v1.0.17
# 
DISCID=8608c90a
DTITLE=James Cotton - 100% Cotton
DYEAR=1974
DGENRE=Blues
TTITLE0=Boogie Thing
TTITLE1=One More Mile
TTITLE2=All Walks Of Life
TTITLE3=Creeper Creeps Again
TTITLE4=Rocket 88
TTITLE5=How Long Can A Fool Go Wrong
TTITLE6=I Don't Know
TTITLE7=Burner
TTITLE8='Fatuation
TTITLE9=Fever
EXTD=YEAR: 1974
EXTT0=
EXTT1=
EXTT2=
EXTT3=
EXTT4=
EXTT5=
EXTT6=
EXTT7=
EXTT8=
EXTT9=
PLAYORDER=
